<?xml version="1.0"?>
<!DOCTYPE svg PUBLIC "-//W3C//DTD SVG 1.1//EN" "http://www.w3.org/Graphics/SVG/1.1/DTD/svg11.dtd">
<svg xmlns="http://www.w3.org/2000/svg" xmlns:xl="http://www.w3.org/1999/xlink" version="1.1" viewBox="76 91 562 323" width="562pt" height="323pt"><metadata xmlns:dc="http://purl.org/dc/elements/1.1/"><dc:date>2013-07-13 18:31Z</dc:date><!-- Produced by OmniGraffle Professional 5.4.3 --></metadata><defs></defs><g stroke="none" stroke-opacity="1" stroke-dasharray="none" fill="none" fill-opacity="1"><title>Canvas 6</title><g><title>Layer 1</title><rect x="493.40645" y="329.27548" width="133" height="73" fill="white"/><rect x="493.40645" y="329.27548" width="133" height="73" stroke="black" stroke-linecap="round" stroke-linejoin="round" stroke-width="1"/><rect x="489.93512" y="102.388436" width="133" height="73" fill="white"/><rect x="489.93512" y="102.388436" width="133" height="73" stroke="black" stroke-linecap="round" stroke-linejoin="round" stroke-width="1"/><ellipse cx="157" cy="285" rx="70.000114" ry="26.000042" fill="white"/><ellipse cx="157" cy="285" rx="70.000114" ry="26.000042" stroke="black" stroke-linecap="round" stroke-linejoin="round" stroke-width="1"/><line x1="207.34378" y1="266.58447" x2="489.46555" y2="163.3856" stroke="black" stroke-linecap="round" stroke-linejoin="round" stroke-width="1"/><ellipse cx="552.5" cy="120" rx="7.500012" ry="7.000011" fill="white"/><ellipse cx="552.5" cy="120" rx="7.500012" ry="7.000011" stroke="black" stroke-linecap="round" stroke-linejoin="round" stroke-width="1"/><ellipse cx="517.5" cy="137" rx="7.500012" ry="7.000011" fill="white"/><ellipse cx="517.5" cy="137" rx="7.500012" ry="7.000011" stroke="black" stroke-linecap="round" stroke-linejoin="round" stroke-width="1"/><ellipse cx="532.5" cy="162" rx="7.500012" ry="7.000011" fill="white"/><ellipse cx="532.5" cy="162" rx="7.500012" ry="7.000011" stroke="black" stroke-linecap="round" stroke-linejoin="round" stroke-width="1"/><ellipse cx="602.5" cy="156" rx="7.500012" ry="7.000011" fill="white"/><ellipse cx="602.5" cy="156" rx="7.500012" ry="7.000011" stroke="black" stroke-linecap="round" stroke-linejoin="round" stroke-width="1"/><line x1="549.23817" y1="126.849834" x2="535.76183" y2="155.15017" stroke="black" stroke-linecap="round" stroke-linejoin="round" stroke-width="1"/><line x1="545.3951" y1="123.45012" x2="524.6031" y2="133.54662" stroke="black" stroke-linecap="round" stroke-linejoin="round" stroke-width="1"/><line x1="558.84467" y1="124.56838" x2="596.15445" y2="151.4327" stroke="black" stroke-linecap="round" stroke-linejoin="round" stroke-width="1"/><ellipse cx="552.5" cy="348" rx="7.500012" ry="7.000011" fill="white"/><ellipse cx="552.5" cy="348" rx="7.500012" ry="7.000011" stroke="black" stroke-linecap="round" stroke-linejoin="round" stroke-width="1"/><ellipse cx="567.5" cy="384" rx="7.500012" ry="7.000011" fill="white"/><ellipse cx="567.5" cy="384" rx="7.500012" ry="7.000011" stroke="black" stroke-linecap="round" stroke-linejoin="round" stroke-width="1"/><ellipse cx="532.5" cy="390" rx="7.500012" ry="7.000011" fill="white"/><ellipse cx="532.5" cy="390" rx="7.500012" ry="7.000011" stroke="black" stroke-linecap="round" stroke-linejoin="round" stroke-width="1"/><ellipse cx="587.5" cy="357" rx="7.500012" ry="7.000011" fill="white"/><ellipse cx="587.5" cy="357" rx="7.500012" ry="7.000011" stroke="black" stroke-linecap="round" stroke-linejoin="round" stroke-width="1"/><line x1="549.23817" y1="354.84983" x2="535.76183" y2="383.15017" stroke="black" stroke-linecap="round" stroke-linejoin="round" stroke-width="1"/><line x1="555.41134" y1="354.98721" x2="564.58866" y2="377.01279" stroke="black" stroke-linecap="round" stroke-linejoin="round" stroke-width="1"/><line x1="560.2161" y1="349.98414" x2="579.7839" y2="355.01586" stroke="black" stroke-linecap="round" stroke-linejoin="round" stroke-width="1"/><ellipse cx="560" cy="156" rx="7.500012" ry="7.000011" fill="white"/><ellipse cx="560" cy="156" rx="7.500012" ry="7.000011" stroke="black" stroke-linecap="round" stroke-linejoin="round" stroke-width="1"/><line x1="554.03366" y1="127.36149" x2="558.4664" y2="148.6385" stroke="black" stroke-linecap="round" stroke-linejoin="round" stroke-width="1"/><line x1="532.5" y1="169.5" x2="532.5" y2="382.5" stroke="black" stroke-linecap="round" stroke-linejoin="round" stroke-width="2" stroke-dasharray="1,4"/><line x1="561.01782" y1="163.43934" x2="586.48218" y2="349.56066" stroke="black" stroke-linecap="round" stroke-linejoin="round" stroke-width="2" stroke-dasharray="1,4"/><line x1="219.10599" y1="297.45113" x2="492.9162" y2="352.34514" stroke="black" stroke-linecap="round" stroke-linejoin="round" stroke-width="1"/></g></g></svg>
